<?xml version="1.0" encoding="UTF-8" standalone="no"?>
<!-- Created with Inkscape (http://www.inkscape.org/) -->

<svg
   version="1.1"
   id="svg1"
   width="1414"
   height="2000"
   viewBox="0 0 1414 2000"
   sodipodi:docname="Gilberto Alves Ferreira (2).svg"
   inkscape:version="1.3.2 (091e20e, 2023-11-25, custom)"
   xmlns:inkscape="http://www.inkscape.org/namespaces/inkscape"
   xmlns:sodipodi="http://sodipodi.sourceforge.net/DTD/sodipodi-0.dtd"
   xmlns="http://www.w3.org/2000/svg"
   xmlns:svg="http://www.w3.org/2000/svg">
  <defs
     id="defs1" />
  <sodipodi:namedview
     id="namedview1"
     pagecolor="#ffffff"
     bordercolor="#000000"
     borderopacity="0.25"
     inkscape:showpageshadow="2"
     inkscape:pageopacity="0.0"
     inkscape:pagecheckerboard="0"
     inkscape:deskcolor="#d1d1d1"
     inkscape:zoom="0.2545"
     inkscape:cx="705.30452"
     inkscape:cy="1000"
     inkscape:window-width="1366"
     inkscape:window-height="705"
     inkscape:window-x="-8"
     inkscape:window-y="-8"
     inkscape:window-maximized="1"
     inkscape:current-layer="g1" />
  <g
     inkscape:groupmode="layer"
     inkscape:label="Image"
     id="g1">
    <path
       style="fill:#000000"
       d="m 537.27782,1196.8186 c 0.33769,-0.88 3.55669,-6.8917 7.15334,-13.3593 7.15104,-12.8592 7.14482,-13.3174 -0.18116,-13.3438 -2.3375,-0.01 -4.25,-0.377 -4.25,-0.8191 0,-2.1573 7.28967,-7.5788 11.69188,-8.6956 l 4.80812,-1.2198 4.5,-9.9526 c 9.88909,-21.8717 17.83036,-31.6165 31.23081,-38.3237 8.86613,-4.4376 14.58766,-5.9163 15.73147,-4.0655 0.4088,0.6614 0.37912,3.0832 -0.0659,5.3818 -1.50043,7.7489 -0.95953,21.8402 1.25441,32.6792 1.28797,6.3057 2.1743,14.4946 2.21881,20.5 0.0652,8.7971 -0.24369,10.6852 -2.5679,15.6965 -3.35387,7.2313 -10.32165,14.2798 -15.71321,15.8951 -2.25573,0.6759 -4.40091,0.9293 -4.76706,0.5631 -0.36615,-0.3661 -0.10814,-4.3081 0.57336,-8.76 0.6815,-4.4518 1.09252,-8.2408 0.91339,-8.4199 -0.17914,-0.1791 -2.2341,0.1837 -4.56659,0.8063 -3.19716,0.8533 -5.63901,0.8386 -9.92181,-0.06 l -5.68093,-1.1916 -6.09899,5.8566 c -7.18491,6.8993 -14.72389,10.9928 -21.78584,11.8291 -4.39772,0.5209 -5.00661,0.3852 -4.47615,-0.9971 z M 590.5,1149.1021 c 0,-9.8997 -0.12849,-17.9999 -0.28554,-18.0006 -0.90207,-0 -12.21446,30.1185 -12.21446,32.5246 0,1.1259 6.15553,3.0925 10.5,3.3546 1.93039,0.1164 2,-0.5058 2,-17.8786 z m 54.42935,47.6307 c -14.66368,-3.9537 -23.12241,-15.7606 -23.08413,-32.2214 0.0555,-23.888 16.2241,-47.0233 37.98667,-54.3546 5.15266,-1.7358 8.60363,-2.0566 22.12221,-2.0566 9.28972,0 17.8998,-0.5035 20.49941,-1.1988 5.12302,-1.3702 6.61859,-0.6433 4.19241,2.0376 -2.92609,3.2333 -11.82514,6.8908 -22.14592,9.102 -13.0177,2.7891 -20.86425,6.5099 -27.11122,12.8562 -6.33767,6.4385 -9.90369,12.9864 -12.41063,22.7884 -2.40304,9.3958 -2.47439,13.1339 -0.35194,18.4384 3.98043,9.9481 23.24426,11.8153 32.30163,3.1309 3.26301,-3.1287 4.09931,-4.8781 5.81034,-12.1547 1.09929,-4.675 2.34745,-9.3302 2.77369,-10.345 0.72552,-1.7272 0.33502,-1.7991 -6.11844,-1.1263 -3.79139,0.3952 -7.65135,1.1129 -8.57769,1.5949 -5.8401,3.0388 -6.7852,-3.0057 -1.38974,-8.8883 l 3.42601,-3.7353 h 14.57338 c 16.76475,0 17.09362,0.2302 10.07461,7.0519 -2.475,2.4054 -4.50767,5.1778 -4.51703,6.1608 -0.16513,17.3254 -0.65061,22.0026 -2.67665,25.7873 -2.5846,4.8281 -9.512,11.63 -14.30632,14.047 -8.58506,4.3282 -21.65021,5.6257 -31.07065,3.0856 z M 705,1196.567 c 0,-0.8433 1.06231,-3.6558 2.36068,-6.25 3.38812,-6.7697 7.06679,-18.5388 11.09485,-35.4958 4.08475,-17.1955 8.22956,-27.8248 13.04276,-33.448 l 3.4267,-4.0033 -5.06837,-0.6003 c -8.76578,-1.0382 -10.43629,-4.4868 -2.1189,-4.3743 2.94346,0.04 8.3835,-1.1924 14.24385,-3.2266 8.53866,-2.9637 10.32869,-3.248 18,-2.8589 9.792,0.4968 14.90147,2.6153 19.82103,8.2184 4.29051,4.8866 5.72921,10.6525 4.25843,17.0666 -2.0487,8.9344 -7.52931,14.8394 -16.69886,17.9917 l -3.42317,1.1768 5.0814,3.1588 c 6.56073,4.0784 10.56469,11.8928 9.62107,18.7772 -1.22752,8.9557 -8.20496,18.4998 -16.83173,23.0232 -4.0367,2.1166 -16.87333,2.5804 -17.54384,0.6339 -0.23566,-0.6842 0.64598,-1.6524 1.95919,-2.1517 10.35308,-3.9362 16.84469,-19.8217 12.42387,-30.4022 -1.98895,-4.7603 -7.75003,-9.3746 -12.76127,-10.2213 -3.70391,-0.6258 -4.51509,-0.4244 -6.08088,1.5092 -0.99374,1.2273 -1.80681,3.6845 -1.80681,5.4606 0,4.9462 -3.70947,18.343 -6.1906,22.3576 -3.78866,6.1302 -7.94091,10.2245 -12.93614,12.7558 C 713.206,1198.5362 705,1199.0701 705,1196.567 Z m 43.5,-52.2034 c 14.16741,-3.3804 17,-5.8273 17,-14.6853 0,-9.9455 -4.66171,-13.9041 -15.7516,-13.3758 l -6.2484,0.2977 -1.6414,5 c -0.90277,2.75 -1.96873,9.6812 -2.36879,15.4026 -0.69366,9.9201 -0.64072,10.3652 1.1414,9.5975 1.02783,-0.4428 4.56879,-1.4493 7.86879,-2.2367 z m 62.40912,52.247 c -13.85442,-4.4607 -20.99393,-19.5868 -18.75855,-39.7427 1.59221,-14.3566 7.99413,-28.1485 16.72891,-36.0399 9.57326,-8.6488 19.43752,-11.7012 40.12052,-12.4149 8.525,-0.2941 15.9275,-0.9349 16.45,-1.4239 1.20747,-1.13 4.55,-1.1623 4.55,-0.044 0,1.3106 -3.21105,3.9046 -6.27558,5.0697 -1.52455,0.5796 -7.07771,1.6946 -12.34035,2.4777 -21.50309,3.1998 -31.91539,13.38 -37.87364,37.0297 -4.80775,19.083 -4.07383,29.0417 2.42308,32.8796 3.9402,2.3275 10.57207,2.167 14.65215,-0.3546 3.40166,-2.1024 8.85258,-8.8887 11.82092,-14.717 3.39949,-6.6748 7.71038,-21.935 8.27881,-29.3062 0.56517,-7.3289 0.48622,-7.7002 -2.30007,-10.8184 -2.10581,-2.3566 -4.03352,-3.3829 -7.13532,-3.7989 -5.26038,-0.7054 -5.6045,-2.8427 -0.78212,-4.8576 9.68671,-4.0474 21.55495,0.795 26.70883,10.8974 6.76962,13.2696 -0.1166,39.3654 -14.18056,53.7384 -8.38046,8.5646 -16.35643,12.0961 -28.35463,12.5545 -6.19692,0.2367 -10.6203,-0.1269 -13.7324,-1.1289 z"
       id="path1" />
  </g>
</svg>
