<?xml version="1.0" encoding="UTF-8" standalone="no"?>
<!-- Created with Inkscape (http://www.inkscape.org/) -->

<svg
   version="1.1"
   id="svg1"
   width="512"
   height="512"
   viewBox="0 0 512 512"
   sodipodi:docname="beija vetor.svg"
   inkscape:version="1.3.2 (091e20e, 2023-11-25, custom)"
   xmlns:inkscape="http://www.inkscape.org/namespaces/inkscape"
   xmlns:sodipodi="http://sodipodi.sourceforge.net/DTD/sodipodi-0.dtd"
   xmlns="http://www.w3.org/2000/svg"
   xmlns:svg="http://www.w3.org/2000/svg">
  <defs
     id="defs1" />
  <sodipodi:namedview
     id="namedview1"
     pagecolor="#ffffff"
     bordercolor="#000000"
     borderopacity="0.25"
     inkscape:showpageshadow="2"
     inkscape:pageopacity="0.0"
     inkscape:pagecheckerboard="0"
     inkscape:deskcolor="#d1d1d1"
     inkscape:zoom="0.99414062"
     inkscape:cx="256"
     inkscape:cy="256"
     inkscape:window-width="1366"
     inkscape:window-height="705"
     inkscape:window-x="-8"
     inkscape:window-y="-8"
     inkscape:window-maximized="1"
     inkscape:current-layer="g1" />
  <g
     inkscape:groupmode="layer"
     inkscape:label="Image"
     id="g1">
    <path
       style="fill:#000000"
       d="m 29.41957,510.48204 c -1.51195,-3.94006 4.4048,-12.17038 21.58921,-30.03103 6.37603,-6.62695 18.33458,-19.45195 26.57455,-28.5 40.69104,-44.68155 59.92089,-69.62092 64.51583,-83.67116 4.60503,-14.08107 11.44832,-30.31087 19.30308,-45.77985 7.22045,-14.21978 13.41771,-24.12086 33.99611,-54.314 3.11656,-4.5727 5.66648,-8.71954 5.66648,-9.2152 0,-0.49567 -1.37828,-2.47099 -3.06285,-4.38961 -2.21909,-2.52739 -9.36826,-6.64265 -25.95122,-14.9382 -12.5886,-6.2974 -26.78032,-13.80067 -31.53716,-16.67393 C 110.75628,204.99478 86.90056,180.88744 72.26441,154 57.89879,127.60955 46.80472,90.522467 41.45344,50.999997 39.405,35.871047 38.9341,2.7475471 40.74162,0.92984709 43.47017,-1.8140829 47.7518,1.5148471 71.45039,24.805627 c 33.42852,32.85328 50.45057,46.88199 87.61444,72.20736 25.19972,17.172373 37.98165,26.669453 62.5,46.438003 28.0901,22.64836 29.52246,23.62144 20.16234,13.69734 -17.67507,-18.74007 -19.25044,-30.80356 -10.07481,-77.148333 7.72806,-39.03329 17.2702,-68 22.4004,-68 1.56389,0 4.65326,5.39676 15.31303,26.75 14.85488,29.75672 19.87484,41.82973 25.05195,60.25 6.9423,24.700823 17.88792,52.333683 23.33923,58.921263 l 2.00363,2.42125 3.74551,-4.14584 c 11.74832,-13.00398 32.54251,-23.56236 50.65811,-25.72196 11.25179,-1.34136 24.66949,4.44552 31.33601,13.51481 1.61447,2.19637 3.76406,4.2564 4.77685,4.57785 1.0128,0.32145 6.47281,-0.79236 12.13335,-2.47514 22.45758,-6.67622 55.97965,-13.67607 74.78152,-15.61536 4.85413,-0.50067 6.83463,-0.34778 7.40277,0.5715 1.34172,2.17093 -2.07362,3.59325 -17.81268,7.41809 -54.1416,13.15725 -85.42129,31.87739 -106.90533,63.98025 -10.84161,16.20023 -17.01706,30.08275 -28.34806,63.72687 -10.83138,32.16065 -18.03918,45.19395 -34.35185,62.11575 -18.42824,19.11639 -37.66586,30.28605 -62.14663,36.0833 -40.03405,9.4804 -73.32977,32.60673 -109.2431,75.87737 -8.02054,9.66365 -11.72224,12.72669 -11.72224,9.69977 0,-0.57763 1.38556,-6.24207 3.07902,-12.58765 1.69347,-6.34557 2.82762,-11.78882 2.52033,-12.0961 -1.23906,-1.23907 -9.07213,5.39263 -28.33944,23.99301 -21.29658,20.5594 -35.70409,33.2229 -53.51588,47.03786 -17.65748,13.69528 -26.82038,18.27366 -28.38929,14.18515 z"
       id="path1" />
  </g>
</svg>
