<?xml version="1.0" encoding="UTF-8" standalone="no"?>
<!-- Created with Inkscape (http://www.inkscape.org/) -->

<svg
   version="1.1"
   id="svg1"
   width="251"
   height="251"
   viewBox="0 0 251 251"
   sodipodi:docname="exotic vetor.svg"
   inkscape:version="1.3.2 (091e20e, 2023-11-25, custom)"
   xmlns:inkscape="http://www.inkscape.org/namespaces/inkscape"
   xmlns:sodipodi="http://sodipodi.sourceforge.net/DTD/sodipodi-0.dtd"
   xmlns="http://www.w3.org/2000/svg"
   xmlns:svg="http://www.w3.org/2000/svg">
  <defs
     id="defs1" />
  <sodipodi:namedview
     id="namedview1"
     pagecolor="#ffffff"
     bordercolor="#000000"
     borderopacity="0.25"
     inkscape:showpageshadow="2"
     inkscape:pageopacity="0.0"
     inkscape:pagecheckerboard="0"
     inkscape:deskcolor="#d1d1d1"
     inkscape:zoom="2.0278884"
     inkscape:cx="125.5"
     inkscape:cy="125.5"
     inkscape:window-width="1366"
     inkscape:window-height="705"
     inkscape:window-x="-8"
     inkscape:window-y="-8"
     inkscape:window-maximized="1"
     inkscape:current-layer="g1" />
  <g
     inkscape:groupmode="layer"
     inkscape:label="Image"
     id="g1">
    <path
       style="fill:#000000"
       d="m 69.972495,127.27615 c -1.375,-0.44751 -5.334214,-1.32177 -8.798253,-1.94279 -5.26345,-0.94362 -6.800993,-0.87834 -9.358146,0.39734 -3.969556,1.98027 -6.282288,0.76849 -7.959476,-4.17046 -1.838446,-5.41382 -1.414723,-13.8051 1.154656,-22.866403 1.230687,-4.3402 2.37512,-10.0883 2.543184,-12.77355 0.470025,-7.509831 0.8995,-8.113371 4.163908,-5.851491 4.276257,2.96298 5.65893,3.19392 12.627212,2.10906 4.619548,-0.7192 7.099512,-0.69274 8.564639,0.0914 4.248403,2.273681 2.76447,2.951431 -10.208577,4.662541 -2.62397,0.34609 -4.927409,0.9086 -5.118754,1.25002 -0.191345,0.34142 -0.654306,3.43327 -1.028803,6.87077 -0.641982,5.892753 -0.561269,6.250003 1.412053,6.250003 2.745415,0 14.003186,3.3188 14.004971,4.12868 0.0036,1.61928 -5.719143,2.92807 -8.379841,1.91648 -1.511935,-0.57487 -4.233188,-1.04519 -6.047229,-1.04519 -3.243218,0 -3.31953,0.1043 -4.573046,6.25 -0.701133,3.4375 -1.325123,6.65705 -1.386643,7.15455 -0.105803,0.85561 3.549343,1.26421 16.497392,1.84419 l 5.609246,0.25126 -1.545846,2.35926 c -1.443448,2.20298 -1.420015,2.33503 0.353762,1.99343 2.625942,-0.50571 9.465024,-9.80079 9.456684,-12.85269 -0.01118,-4.09293 -2.727377,-13.05996 -4.574094,-15.100563 -2.061701,-2.27815 -0.684885,-2.45938 3.955219,-0.52062 1.81499,0.75835 4.281563,2.626703 5.481274,4.151883 l 2.181292,2.77307 3.763783,-4.07691 c 3.88268,-4.205703 7.900028,-5.950903 10.957198,-4.759963 1.45091,0.56521 1.21684,0.90951 -1.36113,2.00212 -3.774278,1.59965 -10.397088,11.926703 -10.364668,16.161793 0.029,3.78339 3.31069,10.89635 5.62478,12.19138 1.01013,0.56529 1.53502,1.32938 1.16643,1.69797 -1.30447,1.30447 -7.00832,-0.75261 -10.439033,-3.7648 -3.424537,-3.00679 -3.498741,-3.02249 -4.891112,-1.0346 -1.522481,2.17365 -7.431834,5.34655 -9.634161,5.17286 -0.741879,-0.0585 -2.473871,-0.47252 -3.848871,-0.92003 z m 104.098865,-1.57504 c -4.22157,-5.36686 -3.52449,-11.79276 2.40114,-22.13414 3.09129,-5.394923 4.23296,-6.131453 6.3,-4.064413 1.87014,1.870143 1.42971,6.484113 -1.40214,14.688713 -2.1359,6.18828 -2.42143,8.12785 -1.5936,10.82518 0.94044,3.06421 0.85095,3.28611 -1.32528,3.28611 -1.32261,0 -3.22045,-1.12717 -4.38012,-2.60145 z m -22.09835,0.478 c -7.20912,-2.87467 -9.25124,-8.56424 -6.07417,-16.92329 1.13996,-2.99929 2.07288,-6.01576 2.07316,-6.70326 6.8e-4,-1.70763 -3.47685,-1.57163 -7.04916,0.27568 -3.45508,1.78669 -3.81415,0.77864 -0.85431,-2.39838 2.36769,-2.541423 5.94442,-4.127303 9.30855,-4.127303 2.7097,0 4.59542,-3.50727 4.59542,-8.54705 0,-4.243031 2.18544,-4.625761 4.67939,-0.8195 1.13974,1.73946 1.68361,4.42267 1.6021,7.90403 -0.13977,5.969763 1.23228,7.035953 6.94571,5.397363 4.06592,-1.166093 4.70104,-0.418643 1.96722,2.31518 -1.48999,1.48999 -3.87851,2.36389 -7.44036,2.72222 -4.95028,0.49802 -5.35323,0.75318 -7.15034,4.52776 -2.60162,5.46436 -3.27016,12.70201 -1.32258,14.31836 3.28601,2.72715 9.26767,-3.26124 11.12687,-11.1394 0.76847,-3.25627 2.53383,-3.09399 4.35141,0.40001 4.09868,7.87905 -7.28791,16.57418 -16.75891,12.79758 z m 42.3324,0.0262 c -1.74189,-0.5043 -4.3769,-2.3547 -5.85556,-4.11199 -2.39053,-2.84098 -2.64213,-3.83593 -2.27022,-8.97754 0.55701,-7.70054 4.33081,-12.59619 11.59831,-15.046183 4.34216,-1.46382 5.71222,-1.54148 8.82006,-0.5 4.67224,1.56574 6.10846,3.748103 4.8361,7.348533 -1.4121,3.99583 -3.1386,4.05774 -2.67608,0.096 0.25571,-2.19032 -0.15113,-3.77001 -1.1938,-4.63535 -3.55598,-2.951203 -10.79665,5.62992 -12.79684,15.16591 -1.32673,6.32523 -0.30141,8.75797 3.6912,8.75797 2.45376,0 7.09122,-4.09282 8.04599,-7.10105 0.81282,-2.56097 3.10162,-2.40773 3.79775,0.25427 0.83561,3.19539 -1.83517,7.47869 -5.44866,8.73836 -3.68597,1.28494 -6.13948,1.28753 -10.54825,0.0111 z M 115.51418,125.617 c -6.44428,-1.78119 -9.88002,-7.18043 -9.80508,-15.40863 0.0909,-9.98468 4.65301,-15.136533 13.40374,-15.136533 8.70865,0 13.85218,5.655433 13.85218,15.230773 0,6.07287 -2.21645,10.79017 -6.33901,13.49137 -2.70624,1.7732 -8.09405,2.65713 -11.11183,1.82302 z m 8.72198,-4.30715 c 5.1016,-4.01291 5.74381,-16.02654 1.1293,-21.12552 -1.71032,-1.889883 -7.46543,-2.558613 -10.84816,-1.260543 -4.26867,1.638043 -6.08948,13.491063 -2.99244,19.480073 2.56468,4.95955 8.40362,6.29441 12.7113,2.90599 z m 54.95885,-26.563943 c -3.08289,-2.15934 -2.7764,-5.12347 0.88325,-8.54209 3.77752,-3.528741 4.62065,-3.595791 6.04013,-0.48036 0.91042,1.99816 0.73208,2.94179 -1.02144,5.40437 -1.16845,1.64089 -2.12445,3.4765 -2.12445,4.0791 0,1.51303 -1.16147,1.37126 -3.77749,-0.46107 z"
       id="path1" />
  </g>
</svg>
