<?xml version="1.0" encoding="UTF-8" standalone="no"?>
<!-- Created with Inkscape (http://www.inkscape.org/) -->

<svg
   version="1.1"
   id="svg1"
   width="1414"
   height="2000"
   viewBox="0 0 1414 2000"
   sodipodi:docname="slogan.svg"
   inkscape:version="1.3.2 (091e20e, 2023-11-25, custom)"
   xmlns:inkscape="http://www.inkscape.org/namespaces/inkscape"
   xmlns:sodipodi="http://sodipodi.sourceforge.net/DTD/sodipodi-0.dtd"
   xmlns="http://www.w3.org/2000/svg"
   xmlns:svg="http://www.w3.org/2000/svg">
  <defs
     id="defs1" />
  <sodipodi:namedview
     id="namedview1"
     pagecolor="#ffffff"
     bordercolor="#000000"
     borderopacity="0.25"
     inkscape:showpageshadow="2"
     inkscape:pageopacity="0.0"
     inkscape:pagecheckerboard="0"
     inkscape:deskcolor="#d1d1d1"
     inkscape:zoom="0.2545"
     inkscape:cx="705.30452"
     inkscape:cy="1000"
     inkscape:window-width="1366"
     inkscape:window-height="705"
     inkscape:window-x="-8"
     inkscape:window-y="-8"
     inkscape:window-maximized="1"
     inkscape:current-layer="g1" />
  <g
     inkscape:groupmode="layer"
     inkscape:label="Image"
     id="g1">
    <path
       style="fill:#000000"
       d="m 271.85434,938.18699 c -2.32173,-2.3218 -1.93456,-6.3205 1.5423,-15.9293 1.71255,-4.7328 2.92475,-8.7942 2.69377,-9.0251 -0.23098,-0.231 -2.19465,0.082 -4.36373,0.6952 -5.11159,1.4454 -19.78673,1.4257 -25.05659,-0.034 -2.26205,-0.6264 -5.74076,-2.2437 -7.73046,-3.5939 l -3.61764,-2.455 -6.42563,3.0069 c -11.57633,5.4172 -25.51449,4.8611 -34.67628,-1.3835 l -3.43717,-2.3428 -3.5,2.7649 c -1.925,1.5207 -5.59852,3.3209 -8.16338,4.0005 -5.96013,1.5793 -12.02416,-0.052 -15.994,-4.3013 -4.48498,-4.8012 -4.66144,-8.8431 -0.87446,-20.0304 1.80623,-5.3358 3.01384,-10.4056 2.68357,-11.2663 -0.52231,-1.3611 -5.5532,-4.0729 -6.14583,-3.3128 -0.1192,0.1529 -1.5663,3.8645 -3.21578,8.2481 -3.53109,9.3839 -6.65744,12.4868 -11.03811,10.9552 -4.03407,-1.4103 -3.98495,-5.0347 0.22351,-16.4916 2.84481,-7.7445 3.40024,-10.2973 2.57571,-11.838 -0.57818,-1.0803 -1.05123,-3.8284 -1.05123,-6.1069 0,-5.2442 4.21189,-9.9888 8.86731,-9.9888 4.16318,0 8.46602,3.8682 8.46602,7.6108 0,2.6348 0.68764,3.2555 6.87894,6.2091 7.26884,3.4677 10.78593,7.4439 10.77391,12.1801 -0.003,1.375 -1.57681,6.9954 -3.49626,12.4897 -4.03652,11.5544 -4.35735,14.5103 -1.57491,14.5103 3.92935,0 9.36401,-8.1245 13.46907,-20.1356 4.98886,-14.5969 6.74908,-18.0043 11.19318,-21.6675 8.94982,-7.3772 23.63831,-6.3204 29.65825,2.1338 3.30668,4.6439 3.57171,13.919 0.54654,19.1277 -4.99729,8.6042 -16.40118,12.8167 -24.98623,9.2296 -3.23376,-1.3511 -3.71009,-1.3538 -4.22049,-0.024 -1.19447,3.1127 -0.49018,6.0671 2.00523,8.4114 2.20072,2.0675 3.56621,2.4243 9.2767,2.4243 10.01302,0 15.68558,-3.1896 19.64274,-11.0448 1.74531,-3.4646 4.29704,-6.7917 6.10127,-7.9552 2.14722,-1.3847 5.00808,-5.6043 9.29967,-13.7165 3.40913,-6.4441 7.36175,-12.6316 8.7836,-13.75 8.39714,-6.6052 19.1667,3.8425 11.67912,11.3301 l -2.63635,2.6364 5.13635,10.1146 c 3.92604,7.7314 5.13634,11.1768 5.13634,14.622 0,4.4301 0.038,4.4821 2.21658,3.0356 3.8624,-2.5645 5.64647,-5.9178 10.7856,-20.2722 2.75673,-7.7 5.72902,-15.6358 6.60508,-17.6351 2.47472,-5.6476 8.17297,-7.4829 12.45855,-4.0127 1.86593,1.5109 2.87864,1.6707 5.49654,0.8673 9.30193,-2.8549 18.8895,4.7422 18.65237,14.7798 -0.052,2.2004 -2.14656,9.599 -4.65462,16.4413 -2.50805,6.8424 -4.5601,12.8164 -4.5601,13.2757 0,1.5976 5.67294,-2.1119 9.19957,-6.0154 1.9521,-2.1608 4.34997,-6.3524 5.32861,-9.3148 6.2916,-19.0449 8.87306,-23.5197 15.52655,-26.914 15.74842,-8.0343 32.79994,2.8054 28.88301,18.3609 -2.9906,11.8767 -16.42509,18.8328 -27.46421,14.2204 -3.37892,-1.4118 -3.47745,-1.386 -4.09479,1.0737 -3.10981,12.3905 20.46485,13.9177 30.27453,1.9612 1.78077,-2.1704 4.8626,-9.308 8.23026,-19.0614 5.58568,-16.1773 7.74314,-19.5269 12.57701,-19.5269 2.42094,0 6.53689,3.8144 6.54398,6.0645 0.002,0.7895 -2.72881,9.198 -6.06954,18.6855 -3.34074,9.4876 -5.93028,18.2626 -5.75453,19.5 0.23153,1.6302 1.10017,2.3394 3.15349,2.5745 5.02287,0.5752 9.4809,-5.4391 14.35119,-19.3611 2.30182,-6.5799 4.45054,-12.6547 4.77494,-13.4996 0.4223,-1.0999 -0.34031,-1.8099 -2.68513,-2.5 -2.83359,-0.8339 -3.316,-1.4564 -3.57964,-4.6188 -0.36971,-4.4348 2.37235,-6.845 7.78739,-6.845 h 3.53768 l 4.38598,-12.5728 c 4.67873,-13.4118 6.55307,-15.859 11.68012,-15.2499 1.4943,0.1775 3.58729,1.4955 4.65356,2.9303 l 1.93783,2.6075 -3.58893,10.7254 c -1.97391,5.8996 -3.58893,10.9137 -3.58893,11.143 0,0.2294 1.0882,0.4171 2.41821,0.4171 5.56978,0 8.37163,3.1724 6.47612,7.3326 -1.38274,3.0348 -4.81702,4.6674 -9.81798,4.6674 h -3.82954 l -5.14035,14.75 c -2.82719,8.1125 -5.13272,15.2428 -5.1234,15.845 0.0278,1.7995 3.51482,4.405 5.89534,4.405 2.9024,0 7.05248,-2.2006 9.89956,-5.2492 1.25288,-1.3416 4.49162,-8.6232 7.19719,-16.1814 2.70558,-7.5582 6.09406,-15.2824 7.52997,-17.165 4.12081,-5.4027 9.74076,-7.8398 18.15874,-7.8747 6.38758,-0.027 7.63161,0.299 11.48051,3.0042 2.98033,2.0946 4.9307,4.5154 6.30017,7.8198 1.92602,4.6473 1.93322,4.9796 0.24831,11.4662 -0.95436,3.674 -2.62567,7.8994 -3.71403,9.3896 -2.87757,3.9401 -2.56237,5.7905 0.98638,5.7905 3.77758,0 9.08486,-4.567 11.4802,-9.8789 2.11854,-4.6981 6.18459,-6.9247 9.45206,-5.176 3.17156,1.6974 3.5497,5.2541 1.13929,10.716 -4.38455,9.9353 -14.46073,16.7301 -24.05436,16.2209 -4.31304,-0.229 -5.25166,0.1285 -8.83333,3.3644 -7.84271,7.0854 -19.58054,7.6782 -28.52809,1.4407 -2.50109,-1.7436 -3.15744,-1.8306 -5,-0.6631 -9.56994,6.0639 -20.32997,6.4756 -27.51893,1.053 -2.31889,-1.7492 -2.50146,-1.7341 -6.494,0.536 -7.9312,4.5096 -18.81726,3.9865 -23.62895,-1.1353 -2.13906,-2.2769 -2.19703,-2.2821 -5.32086,-0.4741 -11.70345,6.7734 -28.30408,6.4106 -38.24692,-0.8359 l -3.91131,-2.8507 -3.5,2.1861 c -6.86042,4.2851 -13.82985,5.9506 -25,5.9745 -6.83345,0.015 -11.66714,-0.4698 -13.84236,-1.3872 -4.11994,-1.7375 -3.81727,-2.1666 -8.66759,12.29 -2.05189,6.1158 -4.62641,11.9071 -5.72116,12.8696 -2.47474,2.1758 -8.10172,2.2743 -10.19746,0.1786 z m -13.02598,-36.8831 c 3.02806,-3.0281 3.22583,-8.2503 0.53671,-14.1721 -2.15645,-4.7489 -4.88871,-7.2201 -3.62616,-3.2798 0.42407,1.3235 0.99112,4.0824 1.26011,6.1307 0.41458,3.1571 0.0282,4.1852 -2.5366,6.75 -1.90761,1.9076 -4.07028,3.038 -5.85259,3.059 l -2.82692,0.033 2.36078,1.9668 c 3.25838,2.7145 7.68443,2.5124 10.68467,-0.4878 z m 47.75355,-0.7955 c 1.23463,-1.2581 4.19041,-8.085 6.70455,-15.4854 4.84745,-14.2686 4.82408,-16.4584 -0.18213,-17.0644 -4.30487,-0.5211 -6.44273,2.6546 -11.29759,16.7821 -3.73176,10.8593 -4.43214,13.9235 -3.59994,15.75 1.35583,2.9757 5.46367,2.9844 8.37511,0.018 z m 159.47849,0.6933 c 2.65576,-1.8602 2.77131,-3.325 0.56546,-7.1685 -2.92408,-5.0949 0.4652,-11.6864 6.64446,-12.9223 2.57959,-0.5159 3.00549,-1.1224 3.60752,-5.137 0.3853,-2.5693 0.25158,-5.2409 -0.30701,-6.1337 -1.43938,-2.3007 -6.54,-2.5144 -9.12244,-0.3822 -2.73167,2.2553 -11.42765,26.882 -10.5207,29.7942 1.17717,3.7799 5.2716,4.6539 9.13271,1.9495 z m -250.37366,-22.5814 c 4.89299,-2.2294 4.17767,-10.8619 -0.90006,-10.8619 -2.99984,0 -5.84058,2.9325 -7.23175,7.4653 -0.77199,2.5154 -0.74885,3.566 0.0861,3.9085 2.09065,0.8574 5.51897,0.6393 8.04571,-0.5119 z m 150.59617,-0.8619 c 2.22172,-2.2217 2.65143,-6.9486 0.8,-8.8 -1.7432,-1.7432 -5.24565,-1.47 -7.07541,0.5518 -2.10783,2.3292 -3.93204,7.2652 -3.29679,8.9206 0.80113,2.0878 7.26622,1.6336 9.5722,-0.6724 z m 156.22251,60.4433 c -1.22238,-0.8562 -2.22251,-2.4876 -2.22251,-3.6255 0,-1.1378 5.87757,-18.7748 13.06126,-39.1933 14.41163,-40.9627 15.14159,-42.3401 21.86034,-41.2498 1.96451,0.3188 4.08023,1.2749 4.7016,2.1247 0.89046,1.2178 1.69926,1.3285 3.81838,0.5228 8.95074,-3.4031 19.55842,4.1209 19.55842,13.8726 0,2.3538 -5.63536,19.7591 -9.48079,29.2822 -1.10282,2.7311 2.90586,1.1111 7.53391,-3.0447 3.47179,-3.1175 4.73762,-5.5303 8.931,-17.0236 3.85945,-10.578 5.68367,-14.2083 8.68344,-17.2803 6.04797,-6.1937 16.45721,-8.4744 24.10091,-5.2807 7.10112,2.9671 11.23153,8.5659 11.23153,15.2245 0,4.1709 -2.46894,12.5014 -4.65316,15.7003 -3.5491,5.1978 0.22006,7.3084 6.36282,3.563 3.48612,-2.1256 5.53071,-5.6484 9.70912,-16.7285 2.11774,-5.6158 2.47887,-7.6297 1.64688,-9.1843 -0.58611,-1.0952 -1.06566,-3.8554 -1.06566,-6.1339 0,-5.2442 4.21189,-9.9888 8.86731,-9.9888 4.18714,0 8.46602,3.8671 8.46602,7.6513 0,2.6955 0.62283,3.2513 6.78624,6.0567 7.21631,3.2845 10.88982,7.4444 10.85499,12.292 -0.01,1.375 -1.5832,6.9627 -3.49626,12.4171 -4.0093,11.4311 -4.35445,14.5829 -1.59696,14.5829 2.93106,0 7.93538,-5.8374 11.3871,-13.2828 3.39033,-7.3129 5.65831,-8.8273 10.62199,-7.0924 1.7993,0.6288 2.70702,1.7519 2.92341,3.6169 0.40921,3.5267 -4.65069,14.0523 -9.44345,19.6444 -3.99769,4.6643 -12.06344,9.0879 -16.60015,9.1041 -4.33596,0.015 -10.61532,-2.9639 -12.84446,-6.0944 -3.42397,-4.8086 -3.42905,-8.5986 -0.0251,-18.7586 1.70464,-5.0881 3.09935,-9.8749 3.09935,-10.6374 0,-1.5188 -3.73657,-4.4998 -5.64038,-4.4998 -0.65746,0 -2.38465,3.5711 -3.83821,7.9357 -4.94348,14.8439 -13.46833,22.4209 -25.51412,22.6773 -5.95178,0.1267 -6.81533,0.4308 -10.11567,3.5621 -7.69028,7.2962 -21.45417,7.7616 -29.04204,0.9818 l -3.04381,-2.7196 -5.65288,2.7789 c -9.88084,4.8573 -22.68109,6.0996 -33.5851,3.2594 -3.21882,-0.8384 -5.95196,-1.4009 -6.07363,-1.25 -0.12168,0.1509 -1.91472,5.4494 -3.98455,11.7744 -2.06982,6.325 -4.68467,12.5125 -5.81078,13.75 -2.42193,2.6615 -7.21357,2.9786 -10.47632,0.6933 z m 34.65327,-37.3191 c 2.12903,-2.129 10.12422,-25.2428 10.12422,-29.2687 0,-4.3213 -5.34814,-5.3123 -8.66415,-1.6055 -2.09434,2.3412 -10.33585,24.9857 -10.33585,28.3989 0,4.3548 5.47063,5.8805 8.87578,2.4753 z m 52.12422,-0.1242 c 2.39298,-2.393 2.48864,-3.3496 0.5,-5 -0.87059,-0.7225 -1.5,-2.9042 -1.5,-5.1994 0,-3.0374 0.67788,-4.6323 2.92308,-6.8775 1.60769,-1.6077 3.81367,-2.9231 4.90217,-2.9231 3.77819,0 5.67453,-10.127 2.24049,-11.9648 -6.28111,-3.3616 -9.98481,0.3794 -15.05265,15.2041 -4.2434,12.413 -4.75668,15.6171 -2.81309,17.5607 1.85143,1.8514 6.57828,1.4217 8.8,-0.8 z m 132.74268,14.0286 c -7.33918,-0.9764 -14.61304,-4.7129 -17.49268,-8.9858 -4.57944,-6.795 -2.41125,-16.9064 4.76256,-22.2102 2.00969,-1.4858 5.4614,-6.7064 9.63192,-14.568 3.5749,-6.7387 7.46747,-12.93 8.65017,-13.7584 3.10868,-2.1774 8.89507,-1.9097 11.51679,0.5328 3.21018,2.9907 3.25427,8.1162 0.0991,11.5255 -1.05081,1.1354 -1.91057,2.5892 -1.91057,3.2306 0,0.6413 2.06981,5.132 4.59957,9.9791 2.7981,5.3613 4.81037,10.6831 5.13777,13.5878 l 0.53819,4.7748 3.84022,-3.7498 c 3.03698,-2.9656 4.49811,-5.7513 6.98548,-13.3185 4.37298,-13.3035 7.38164,-18.5375 12.66913,-22.0398 9.69989,-6.4249 21.97824,-4.6987 28.4138,3.9947 4.3137,5.8272 3.08585,15.4582 -2.80154,21.9748 -5.83534,6.4591 -13.17839,8.1728 -23.5342,5.4925 -2.10792,-0.5455 -2.77951,-0.2832 -3.27547,1.2795 -2.74152,8.6377 11.66791,13.2289 23.14413,7.3741 6.96527,-3.5534 9.44848,-7.5096 15.18772,-24.1967 6.72945,-19.5661 9.91399,-23.0244 16.46034,-17.875 1.65154,1.2991 2.63486,3.0527 2.63486,4.6989 0,1.4445 -2.50039,9.7193 -5.55642,18.3885 -3.05602,8.6693 -5.64352,17.0168 -5.75,18.5501 -0.43235,6.2264 8.29868,2.2306 12.2056,-5.5859 0.99631,-1.9933 4.22083,-10.3742 7.1656,-18.6242 6.04884,-16.9463 8.22668,-20.085 13.25151,-19.0983 3.69298,0.7253 5.68371,2.9688 5.68371,6.4057 0,1.3338 -2.7,9.9705 -6,19.1926 -3.3,9.2221 -6,17.509 -6,18.4152 0,2.5579 2.93359,3.0754 6.51156,1.1485 3.41455,-1.8388 4.90185,-4.0901 5.98799,-9.0637 0.37164,-1.7018 2.75075,-5.0235 5.49789,-7.6762 3.22564,-3.1147 6.90121,-8.5418 11.00714,-16.2524 3.3904,-6.367 7.12648,-12.2502 8.3024,-13.0739 3.09774,-2.1697 8.8868,-1.8973 11.50446,0.5415 3.21018,2.9907 3.25427,8.1162 0.0991,11.5255 -1.05081,1.1354 -1.91057,2.5892 -1.91057,3.2306 0,0.6413 2.06981,5.132 4.59957,9.9791 2.7981,5.3613 4.81037,10.6831 5.13777,13.5878 l 0.53819,4.7748 3.75439,-3.666 c 2.06491,-2.0164 4.55063,-5.4318 5.5238,-7.5899 2.47729,-5.4937 9.12883,-6.786 12.06234,-2.3437 1.17696,1.7823 0.98832,2.7919 -1.50769,8.0697 -3.49158,7.383 -8.00624,12.6629 -13.66126,15.977 -11.4104,6.6869 -30.84789,7.7891 -42.01637,2.3826 l -4.61224,-2.2328 -3.8037,2.1378 c -7.72369,4.341 -18.67003,3.4819 -23.48938,-1.8434 -1.68063,-1.8571 -1.81042,-1.8342 -5.74053,1.0128 -6.84564,4.9589 -15.03313,5.1454 -20.59073,0.469 l -2.86472,-2.4105 -6.41472,2.6491 c -11.71329,4.8371 -28.77262,3.2895 -34.83161,-3.16 l -2.21823,-2.3612 -5.31612,3.2012 c -7.94126,4.782 -20.85924,7.0564 -31.80608,5.6001 z m 6.86241,-13.3653 c 2.25338,-1.9383 2.70472,-3.1237 2.64685,-6.9518 -0.0427,-2.8244 -0.9437,-6.17 -2.32214,-8.6226 -2.60574,-4.6363 -4.71989,-4.5174 -2.31649,0.1302 3.02196,5.8438 -1.62228,13.7809 -8.06365,13.7809 -4.17809,0 0.7908,3.798 5.14458,3.9323 1.20683,0.037 3.41671,-0.9838 4.91085,-2.269 z m 152,0 c 2.25338,-1.9383 2.70472,-3.1237 2.64685,-6.9518 -0.0427,-2.8244 -0.9437,-6.17 -2.32214,-8.6226 -2.60574,-4.6363 -4.71989,-4.5174 -2.31649,0.1302 3.02196,5.8438 -1.62228,13.7809 -8.06365,13.7809 -4.17809,0 0.7908,3.798 5.14458,3.9323 1.20683,0.037 3.41671,-0.9838 4.91085,-2.269 z m -95.8276,-23.22 c 2.47805,-1.7357 3.08085,-7.185 1.02251,-9.2433 -1.7432,-1.7432 -5.24565,-1.47 -7.07541,0.5518 -2.10783,2.3292 -3.93204,7.2652 -3.29679,8.9206 0.6984,1.8201 6.63173,1.6746 9.34969,-0.2291 z m 469.8584,36.4565 c -3.2253,-0.471 -7.7305,-1.8995 -10.0115,-3.1744 l -4.1474,-2.318 -5.4885,2.8925 c -4.7842,2.5213 -6.2448,2.8265 -11.3822,2.3781 -3.78,-0.3299 -6.9154,-1.2697 -8.7423,-2.6205 l -2.8486,-2.106 -4.2577,2.2373 c -5.9039,3.1023 -15.7992,3.1732 -20.9144,0.15 l -3.6567,-2.1613 -4.8433,2.4902 c -5.6646,2.9124 -12.6838,2.7079 -17.0843,-0.4975 -2.5993,-1.8935 -2.6659,-1.8896 -7.6905,0.4501 -6.3758,2.9689 -11.8957,3.0095 -17.6066,0.1297 -9.1463,-4.6122 -9.7761,-10.8516 -2.9464,-29.1886 2.2408,-6.0162 3.9415,-11.8616 3.7793,-12.9898 -0.6075,-4.2267 -7.0712,-2.7719 -10.026,2.2568 -0.8635,1.4694 -4.3295,10.5466 -7.7024,20.1716 -6.3564,18.1389 -8.7081,22 -13.3997,22 -3.405,0 -6.6667,-2.7726 -6.6667,-5.667 0,-1.4044 2.9286,-10.666 6.5079,-20.5812 5.0026,-13.8577 6.2465,-18.3428 5.3776,-19.3898 -1.6923,-2.0391 -4.3874,-1.652 -7.6579,1.0999 -2.3709,1.995 -4.11,5.9307 -9.1692,20.75 -4.963,14.5379 -6.8647,18.8716 -9.2735,21.1336 -2.4888,2.3371 -3.5889,2.729 -6.1576,2.1936 -1.72,-0.3585 -4.2523,-0.5569 -5.6273,-0.441 -8.7329,0.7364 -13.8722,0.1748 -17.389,-1.9001 l -3.7093,-2.1885 -3.9476,2.0139 c -11.7362,5.9874 -24.4629,1.6825 -26.5989,-8.9972 -0.4625,-2.3127 0.6429,-6.9057 4.187,-17.3972 2.7,-7.9929 4.5309,-14.996 4.168,-15.942 -0.9315,-2.4272 -4.0926,-2.0776 -7.5547,0.8356 -3.0873,2.5978 -4.4763,5.7495 -12.2336,27.7589 -5.7925,16.435 -5.2277,15.9397 -18.6311,16.3378 -10.0345,0.2981 -11.4901,0.1082 -15.76626,-2.0567 l -4.7111,-2.3851 -3.2972,1.9454 c -11.1592,6.5841 -24.51623,0.1111 -24.51623,-11.8808 0,-4.8028 8.65673,-31.3373 11.96793,-36.684 3.8584,-6.2301 13.6652,-9.0967 21.6315,-6.3231 3.74356,1.3034 4.29566,1.2684 6.36076,-0.4038 2.6217,-2.123 4.9153,-2.3007 8.5167,-0.6598 4.6468,2.1172 4.3711,4.9039 -2.4649,24.9179 -3.5578,10.4164 -6.0691,19.3194 -5.712,20.25 0.9721,2.5334 5.2974,1.9938 8.7319,-1.0893 2.4589,-2.2073 4.4395,-6.5981 10.0367,-22.25 3.8353,-10.725 7.7249,-20.0625 8.6435,-20.75 2.0164,-1.5092 5.7337,-1.617 8.305,-0.2408 1.2936,0.6923 3.2475,0.6449 6.2231,-0.1509 5.9332,-1.5869 11.201,-0.3973 15.439,3.4865 5.5259,5.0641 5.5099,9.2246 -0.097,25.2651 -2.5203,7.2105 -4.5824,13.8621 -4.5824,14.7814 0,4.7876 8.0656,2.1516 11.8956,-3.8877 1.4449,-2.2783 5.0952,-11.2481 8.1119,-19.9328 5.6258,-16.1962 8.2641,-20.5708 12.4064,-20.5708 3.4028,0 6.5841,2.7974 6.6035,5.8067 0.01,1.4813 -2.7459,10.6803 -6.1233,20.4423 -5.0324,14.5456 -5.9158,18.0199 -4.8949,19.25 1.9888,2.3964 5.5987,1.7493 8.9531,-1.6051 4.0924,-4.0924 4.8239,-5.6772 11.0297,-23.8939 3.5539,-10.4322 6.073,-16.2356 7.7049,-17.75 2.5795,-2.3937 7.1862,-2.9769 9.021,-1.1421 0.8106,0.8106 2.0996,0.7807 4.8026,-0.1114 4.2738,-1.4104 10.5172,-0.6797 14.0674,1.6465 2.2663,1.4849 2.7824,1.4483 7.365,-0.5231 6.0789,-2.6151 11.2633,-2.6633 16.7864,-0.1561 4.8612,2.2067 8.2615,7.0277 8.267,11.7209 0,1.7515 -2.0213,8.893 -4.4963,15.8699 -2.475,6.9768 -4.5,13.5454 -4.5,14.5967 0,4.1354 6.8162,3.0537 10.2411,-1.6252 0.9576,-1.3083 4.2637,-9.4993 7.347,-18.2024 3.0833,-8.703 6.5748,-16.8956 7.759,-18.2056 4.8974,-5.4183 13.4662,-7.3462 20.8837,-4.6986 3.1187,1.1131 3.9146,1.1103 4.8505,-0.017 1.8962,-2.2847 7.6183,-2.8288 10.4231,-0.9911 3.7547,2.4602 3.2659,5.9631 -3.6027,25.8163 -3.3733,9.75 -5.8702,18.4125 -5.5488,19.25 1.013,2.6398 5.4216,1.7213 9.5229,-1.984 3.4692,-3.1342 4.5464,-5.4222 10.1383,-21.5339 6.631,-19.1056 8.7111,-22.3774 13.8323,-21.7569 1.3507,0.1637 3.3921,1.5571 4.5364,3.0965 l 2.0807,2.7988 -5.9014,16.7012 c -3.2457,9.1856 -5.9375,18.2761 -5.9817,20.2011 -0.07,3.0536 0.2525,3.5386 2.53,3.8029 3.9366,0.4569 8.1691,-3.6577 9.7127,-9.4424 0.9634,-3.6099 2.5291,-6.0186 6.0852,-9.3613 3.1735,-2.983 6.723,-8.1239 10.5256,-15.2448 3.1555,-5.9092 6.8845,-11.6463 8.2866,-12.7492 8.3932,-6.6021 19.1013,3.9003 11.6123,11.3893 l -2.6672,2.6672 4.8222,9.2191 c 3.2641,6.2402 5.0145,10.9465 5.4172,14.5648 l 0.595,5.3456 2.7461,-2.1651 c 1.5104,-1.1908 4.2373,-4.7214 6.0597,-7.8456 3.4234,-5.8686 5.3992,-6.9733 10.2807,-5.7482 3.7938,0.9522 3.9772,4.5151 0.5761,11.1933 -5.7907,11.3702 -15.9804,18.3459 -29.6936,20.3276 -7.8126,1.1291 -7.7336,1.1294 -15.8331,-0.053 z m 7.9096,-13.3543 c 3.028,-3.0281 3.2258,-8.2503 0.5367,-14.1721 -2.1565,-4.7489 -4.8888,-7.2201 -3.6262,-3.2798 0.4241,1.3235 0.9911,4.0824 1.2601,6.1307 0.4146,3.1571 0.028,4.1852 -2.5366,6.75 -1.9076,1.9076 -4.0703,3.038 -5.8526,3.059 l -2.8269,0.033 2.3608,1.9668 c 3.2584,2.7145 7.6844,2.5124 10.6847,-0.4878 z m -296.24216,-0.9277 c 2.0154,-2.1747 6.8829,-15.2119 8.7742,-23.5008 1.5439,-6.7664 -3.2643,-10.9531 -7.3121,-6.367 -1.5028,1.7027 -9.7654,25.823 -9.7654,28.5074 0,4.0371 5.055,4.8653 8.3033,1.3604 z m 212.16186,0.01 c 3.4799,-3.4799 10.1909,-24.858 8.9294,-28.445 -0.7371,-2.0959 -1.592,-2.6807 -3.9187,-2.6807 -3.6674,0 -4.9159,2.3041 -9.9274,18.3216 -2.7129,8.6709 -3.3006,11.7731 -2.5102,13.25 1.4,2.6159 4.5544,2.4266 7.4269,-0.4459 z m -792.46519,-54.8977 c -3.16573,-1.6318 -5.24665,-5.8992 -4.44132,-9.1079 2.28991,-9.1237 15.84132,-7.5174 15.84132,1.8778 0,6.014 -6.169,9.9266 -11.4,7.2301 z m 688.35699,0.2783 c -4.6585,-1.88 -6.8213,-8.4973 -3.9937,-12.2191 2.162,-2.8456 6.5815,-4.0548 9.8588,-2.6973 6.4859,2.6865 6.5406,11.3109 0.094,14.7446 -2.5111,1.3375 -3.0329,1.3525 -5.9587,0.1718 z m 158.643,-0.2783 c -3.1657,-1.6318 -5.2466,-5.8992 -4.4413,-9.1079 2.2899,-9.1237 15.8413,-7.5174 15.8413,1.8778 0,6.014 -6.169,9.9266 -11.4,7.2301 z"
       id="path1" />
  </g>
</svg>
